<svg width="24" height="24" viewBox="0 0 24 24" fill="none" xmlns="http://www.w3.org/2000/svg">
<path fill-rule="evenodd" clip-rule="evenodd" d="M4.99976 13.9656C5.00391 13.9051 5.00341 13.8897 5.01371 13.8298C5.03696 13.6951 5.08801 13.5656 5.16301 13.4513C5.20091 13.3935 5.24502 13.343 5.29207 13.2926L11.2923 7.29236C11.3367 7.25095 11.3468 7.2394 11.3952 7.20265C11.4496 7.1614 11.5083 7.12575 11.57 7.0964C11.8395 6.96819 12.1594 6.96819 12.429 7.0964C12.4907 7.12575 12.5493 7.1614 12.6037 7.20265C12.6521 7.2394 12.6623 7.25095 12.7066 7.29236L18.7068 13.2926C18.7482 13.337 18.7598 13.3471 18.7965 13.3955C18.893 13.5226 18.9581 13.6726 18.9853 13.8298C19.0046 13.9421 19.0046 14.0574 18.9853 14.1697C18.9698 14.2595 18.942 14.347 18.9029 14.4293C18.7543 14.7417 18.4461 14.9592 18.102 14.9946C17.966 15.0085 17.8275 14.9943 17.6972 14.9529C17.5886 14.9185 17.4862 14.8654 17.3955 14.7966C17.347 14.7599 17.3369 14.7483 17.2926 14.7069L11.9995 9.4138L6.70633 14.7069L6.65643 14.7535C6.60942 14.7918 6.59847 14.8027 6.54767 14.836C6.45247 14.8984 6.34661 14.9444 6.23601 14.9714C6.1475 14.9929 6.0561 15.0023 5.9651 14.9992C5.61933 14.9874 5.29707 14.7914 5.12751 14.4899C5.07171 14.3907 5.03306 14.2819 5.01371 14.1697C5.00341 14.1098 5.00391 14.0944 4.99976 14.0339C4.99976 14.0111 4.99976 13.9884 4.99976 13.9656Z" fill="white"/>
</svg>
